<?xml version="1.0" encoding="iso-8859-1"?>
<!-- Generator: Adobe Illustrator 18.0.0, SVG Export Plug-In . SVG Version: 6.00 Build 0)  -->
<!DOCTYPE svg PUBLIC "-//W3C//DTD SVG 1.1//EN" "http://www.w3.org/Graphics/SVG/1.1/DTD/svg11.dtd">
<svg version="1.1" id="Capa_1" xmlns="http://www.w3.org/2000/svg" xmlns:xlink="http://www.w3.org/1999/xlink" x="0px" y="0px"
	 viewBox="0 0 59 59" style="enable-background:new 0 0 59 59;" xml:space="preserve">
<g>
	<circle style="fill:#3083C9;" cx="22.5" cy="36.5" r="22.5"/>
	<circle style="fill:#3083C9;" cx="36.5" cy="22.5" r="22.5"/>
	<path style="fill:#26B99A;" d="M19.621,37.37L5.939,51.052c-0.115,0.115-0.188,0.251-0.258,0.388C9.803,56.076,15.809,59,22.5,59
		c9.875,0,18.258-6.365,21.287-15.213C41.501,44.569,39.051,45,36.5,45C29.776,45,23.744,42.046,19.621,37.37z"/>
	<path style="fill:#26B99A;" d="M51.44,5.682c-0.137,0.07-0.273,0.143-0.388,0.258L37.37,19.621C42.046,23.744,45,29.776,45,36.5
		c0,2.551-0.431,5.001-1.213,7.287C52.635,40.758,59,32.375,59,22.5C59,15.809,56.076,9.803,51.44,5.682z"/>
	<path style="fill:#1D9377;" d="M37.37,19.621L19.621,37.37C23.744,42.046,29.776,45,36.5,45c2.551,0,5.001-0.431,7.287-1.213
		C44.569,41.501,45,39.051,45,36.5C45,29.776,42.046,23.744,37.37,19.621z"/>
	<g>
		<path style="fill:#7383BF;" d="M36.5,0c-9.875,0-18.258,6.365-21.287,15.213C17.499,14.431,19.949,14,22.5,14
			c5.702,0,10.905,2.125,14.87,5.621L51.052,5.939c0.113-0.113,0.249-0.186,0.384-0.256C47.463,2.151,42.235,0,36.5,0z"/>
	</g>
	<path style="fill:#556080;" d="M37.37,19.621C33.405,16.125,28.202,14,22.5,14c-2.551,0-5.001,0.431-7.287,1.213
		C14.431,17.499,14,19.949,14,22.5c0,5.702,2.125,10.905,5.621,14.87L37.37,19.621z"/>
	<g>
		<path style="fill:#7383BF;" d="M19.621,37.37C16.125,33.405,14,28.202,14,22.5c0-2.551,0.431-5.001,1.213-7.287
			C6.365,18.242,0,26.625,0,36.5c0,5.735,2.151,10.963,5.684,14.936c0.069-0.135,0.142-0.271,0.256-0.384L19.621,37.37z"/>
	</g>
</g>
<g>
</g>
<g>
</g>
<g>
</g>
<g>
</g>
<g>
</g>
<g>
</g>
<g>
</g>
<g>
</g>
<g>
</g>
<g>
</g>
<g>
</g>
<g>
</g>
<g>
</g>
<g>
</g>
<g>
</g>
</svg>
